<svg width="40" height="40" viewBox="0 0 40 40" fill="none" xmlns="http://www.w3.org/2000/svg">
<circle cx="20" cy="20" r="20" fill="#FF4100"/>
<g filter="url(#filter0_ddi_409_1443)">
<path d="M25.5398 16.8523C25.4742 16.8523 25.4185 16.8392 25.3725 16.813C25.3266 16.7868 25.2905 16.7409 25.2643 16.6754L24.6936 15.3385L23.2569 14.7094C23.1913 14.6832 23.1454 14.6472 23.1192 14.6013C23.0929 14.5554 23.0798 14.4997 23.0798 14.4342C23.0798 14.3687 23.0929 14.313 23.1192 14.2671C23.1454 14.2212 23.1913 14.1852 23.2569 14.159L24.6936 13.5495L25.2643 12.2717C25.2905 12.2061 25.3266 12.1603 25.3725 12.134C25.4185 12.1078 25.4742 12.0947 25.5398 12.0947C25.6054 12.0947 25.6612 12.1078 25.7071 12.134C25.753 12.1603 25.7891 12.2061 25.8153 12.2717L26.386 13.5495L27.8227 14.159C27.8883 14.1852 27.9342 14.2212 27.9604 14.2671C27.9867 14.313 27.9998 14.3687 27.9998 14.4342C27.9998 14.4997 27.9867 14.5554 27.9604 14.6013C27.9342 14.6472 27.8883 14.6832 27.8227 14.7094L26.386 15.3385L25.8153 16.6754C25.7891 16.7409 25.753 16.7868 25.7071 16.813C25.6612 16.8392 25.6054 16.8523 25.5398 16.8523ZM25.5398 28.5694C25.4873 28.5694 25.4349 28.5563 25.3824 28.5301C25.3299 28.5039 25.2905 28.458 25.2643 28.3925L24.6936 27.1146L23.2766 26.5052C23.211 26.4789 23.1651 26.4429 23.1389 26.397C23.1126 26.3512 23.0995 26.2955 23.0995 26.2299C23.0995 26.1644 23.1126 26.1087 23.1389 26.0628C23.1651 26.0169 23.211 25.9809 23.2766 25.9547L24.6936 25.3452L25.2643 23.9887C25.2905 23.9232 25.3266 23.8773 25.3725 23.8511C25.4185 23.8249 25.4742 23.8118 25.5398 23.8118C25.6054 23.8118 25.6612 23.8249 25.7071 23.8511C25.753 23.8773 25.7891 23.9232 25.8153 23.9887L26.386 25.3452L27.803 25.9547C27.8686 25.9809 27.9145 26.0169 27.9408 26.0628C27.967 26.1087 27.9801 26.1644 27.9801 26.2299C27.9801 26.2955 27.967 26.3512 27.9408 26.397C27.9145 26.4429 27.8686 26.4789 27.803 26.5052L26.386 27.1146L25.8153 28.3925C25.7891 28.458 25.7497 28.5039 25.6973 28.5301C25.6448 28.5563 25.5923 28.5694 25.5398 28.5694ZM16.9003 25.1683C16.7953 25.1683 16.6937 25.1388 16.5953 25.0798C16.4969 25.0209 16.4214 24.939 16.369 24.8341L15.0898 22.1014L12.3346 20.8629C12.2296 20.8105 12.1476 20.7351 12.0886 20.6368C12.0295 20.5385 12 20.4369 12 20.3321C12 20.2272 12.0295 20.1256 12.0886 20.0273C12.1476 19.929 12.2296 19.8537 12.3346 19.8013L15.0898 18.5627L16.369 15.8497C16.4214 15.7317 16.4969 15.6433 16.5953 15.5843C16.6937 15.5253 16.7953 15.4958 16.9003 15.4958C17.0053 15.4958 17.1069 15.5253 17.2053 15.5843C17.3037 15.6433 17.3792 15.7252 17.4317 15.83L18.7305 18.5627L21.4661 19.8013C21.5841 19.8537 21.6727 19.929 21.7317 20.0273C21.7908 20.1256 21.8203 20.2272 21.8203 20.3321C21.8203 20.4369 21.7908 20.5385 21.7317 20.6368C21.6727 20.7351 21.5841 20.8105 21.4661 20.8629L18.7305 22.1014L17.4317 24.8341C17.3792 24.9521 17.3037 25.0372 17.2053 25.0897C17.1069 25.1421 17.0053 25.1683 16.9003 25.1683Z" fill="url(#paint0_linear_409_1443)" shape-rendering="crispEdges"/>
</g>
<defs>
<filter id="filter0_ddi_409_1443" x="5.63323" y="6.53295" width="28.0017" height="29.5742" filterUnits="userSpaceOnUse" color-interpolation-filters="sRGB">
<feFlood flood-opacity="0" result="BackgroundImageFix"/>
<feColorMatrix in="SourceAlpha" type="matrix" values="0 0 0 0 0 0 0 0 0 0 0 0 0 0 0 0 0 0 127 0" result="hardAlpha"/>
<feOffset dx="-1.31726" dy="2.48816"/>
<feGaussianBlur stdDeviation="2.52475"/>
<feComposite in2="hardAlpha" operator="out"/>
<feColorMatrix type="matrix" values="0 0 0 0 0.0506089 0 0 0 0 0.0159861 0 0 0 0 0.191833 0 0 0 0.25 0"/>
<feBlend mode="normal" in2="BackgroundImageFix" result="effect1_dropShadow_409_1443"/>
<feColorMatrix in="SourceAlpha" type="matrix" values="0 0 0 0 0 0 0 0 0 0 0 0 0 0 0 0 0 0 127 0" result="hardAlpha"/>
<feOffset dx="1.24408" dy="-1.1709"/>
<feGaussianBlur stdDeviation="2.19544"/>
<feComposite in2="hardAlpha" operator="out"/>
<feColorMatrix type="matrix" values="0 0 0 0 1 0 0 0 0 1 0 0 0 0 1 0 0 0 0.35 0"/>
<feBlend mode="normal" in2="effect1_dropShadow_409_1443" result="effect2_dropShadow_409_1443"/>
<feBlend mode="normal" in="SourceGraphic" in2="effect2_dropShadow_409_1443" result="shape"/>
<feColorMatrix in="SourceAlpha" type="matrix" values="0 0 0 0 0 0 0 0 0 0 0 0 0 0 0 0 0 0 127 0" result="hardAlpha"/>
<feOffset dy="3.07361"/>
<feGaussianBlur stdDeviation="1.9393"/>
<feComposite in2="hardAlpha" operator="arithmetic" k2="-1" k3="1"/>
<feColorMatrix type="matrix" values="0 0 0 0 1 0 0 0 0 1 0 0 0 0 1 0 0 0 1 0"/>
<feBlend mode="normal" in2="shape" result="effect3_innerShadow_409_1443"/>
</filter>
<linearGradient id="paint0_linear_409_1443" x1="22.7967" y1="19.8494" x2="20.3181" y2="31.372" gradientUnits="userSpaceOnUse">
<stop stop-color="white" stop-opacity="0.96"/>
<stop offset="1" stop-color="white" stop-opacity="0.23"/>
</linearGradient>
</defs>
</svg>
