<svg width="40" height="40" viewBox="0 0 40 40" fill="none" xmlns="http://www.w3.org/2000/svg">
<path fill-rule="evenodd" clip-rule="evenodd" d="M19.9993 6.66687C24.966 6.66687 29.076 10.2902 29.8543 15.0352C34.5943 15.3885 38.3327 19.3369 38.3327 24.1669C38.3327 29.2285 34.2277 33.3335 29.166 33.3335H9.99935C5.39768 33.3335 1.66602 29.6019 1.66602 25.0002C1.66602 20.3985 5.39768 16.6669 9.99935 16.6669C9.99935 11.1435 14.4777 6.66687 19.9993 6.66687ZM26.136 20.9969L26.481 20.6519C26.806 20.3269 26.806 19.7985 26.481 19.4735L20.5893 13.5802C20.2593 13.2502 19.741 13.2519 19.411 13.5802L13.5193 19.4735C13.1927 19.7985 13.1927 20.3269 13.5193 20.6519L13.8643 20.9969C14.0193 21.1535 14.231 21.2419 14.4527 21.2419H16.666V27.5002C16.666 27.9602 17.0393 28.3335 17.4993 28.3335H22.4993C22.961 28.3335 23.3327 27.9602 23.3327 27.5002V21.2419H25.546C25.7677 21.2419 25.9793 21.1535 26.136 20.9969Z" fill="#FF4100"/>
</svg>
